<?xml version="1.0" encoding="UTF-8" standalone="no"?>
<!-- Created with Inkscape (http://www.inkscape.org/) -->

<svg
   width="117.6"
   height="117.6"
   viewBox="0 0 31.114998 31.114997"
   version="1.1"
   id="svg1"
   inkscape:version="1.3.2 (1:1.3.2+202311252150+091e20ef0f)"
   sodipodi:docname="logo.svg"
   xml:space="preserve"
   inkscape:export-filename="../../../../Desktop/bexer-hugo/static/images/favicon.png"
   inkscape:export-xdpi="34.290001"
   inkscape:export-ydpi="34.290001"
   xmlns:inkscape="http://www.inkscape.org/namespaces/inkscape"
   xmlns:sodipodi="http://sodipodi.sourceforge.net/DTD/sodipodi-0.dtd"
   xmlns="http://www.w3.org/2000/svg"
   xmlns:svg="http://www.w3.org/2000/svg"><sodipodi:namedview
     id="namedview1"
     pagecolor="#ffffff"
     bordercolor="#666666"
     borderopacity="1.0"
     inkscape:showpageshadow="2"
     inkscape:pageopacity="0.0"
     inkscape:pagecheckerboard="0"
     inkscape:deskcolor="#d1d1d1"
     inkscape:document-units="mm"
     inkscape:zoom="0.72188343"
     inkscape:cx="738.34636"
     inkscape:cy="4.8484282"
     inkscape:window-width="1920"
     inkscape:window-height="1051"
     inkscape:window-x="1920"
     inkscape:window-y="0"
     inkscape:window-maximized="1"
     inkscape:current-layer="g3"
     inkscape:export-bgcolor="#ffffff00"
     showgrid="false" /><defs
     id="defs1" /><g
     inkscape:label="Layer 1"
     inkscape:groupmode="layer"
     id="layer1"
     transform="translate(5.8251405,-31.646887)"><g
       id="g3"><g
         id="g2"
         transform="matrix(0.59836538,0,0,0.59836538,-58.721408,-63.244243)"><circle
           style="fill:#7bb335;fill-opacity:1;stroke-width:0.85266;stroke-linecap:round;stroke-opacity:0.993966"
           id="path2"
           cx="114.40128"
           cy="184.58392"
           r="26" /><path
           style="fill:#fffafa;fill-opacity:1;fill-rule:nonzero;stroke:none;stroke-width:0.0946556"
           d="m 131.31189,184.60747 c 0,-0.003 0,-0.006 0.001,-0.009 0,0 0,-0.002 0,-0.003 0,-0.004 0,-0.007 0,-0.0115 0,-0.003 0,-0.006 0,-0.0111 0,-0.001 0,-0.002 0,-0.003 -0.001,-0.003 -0.001,-0.006 -0.001,-0.01 0.12868,-0.0813 0.23369,-0.19559 0.33241,-0.31798 0.13126,-0.16158 0.10021,-0.40044 -0.0673,-0.52541 -1.29965,-0.96911 -2.92581,-1.45274 -4.54531,-1.60804 -0.88037,-0.0843 -3.15321,0.20743 -5.37651,0.60787 2.14011,-0.72323 4.2717,-1.56588 5.00159,-2.06467 1.3433,-0.91809 2.53388,-2.1268 3.20423,-3.60246 0.0862,-0.19042 -0.002,-0.41449 -0.19522,-0.49324 -0.14568,-0.0588 -0.29321,-0.10871 -0.44481,-0.11832 -0.002,-0.003 -0.003,-0.005 -0.004,-0.007 -0.001,-0.001 -0.001,-0.003 -0.002,-0.004 -0.002,-0.003 -0.003,-0.007 -0.005,-0.009 -0.002,-0.003 -0.004,-0.006 -0.006,-0.01 -0.001,-8e-4 -0.001,-0.002 -0.002,-0.003 -0.002,-0.003 -0.003,-0.004 -0.004,-0.007 0.0728,-0.13348 0.10982,-0.28508 0.13718,-0.43926 0.037,-0.20521 -0.10612,-0.39933 -0.31243,-0.4278 -1.60619,-0.22037 -3.26377,0.14087 -4.75756,0.78756 -0.98242,0.42484 -3.48968,2.32202 -5.50518,4.03432 1.7722,-1.96336 3.74185,-4.41405 4.19627,-5.38316 0.68996,-1.47382 1.10074,-3.11994 0.9277,-4.73167 -0.0229,-0.20743 -0.21223,-0.35607 -0.41855,-0.32575 -0.1553,0.0237 -0.30764,0.0547 -0.44297,0.12498 -0.003,-0.002 -0.005,-0.004 -0.007,-0.006 -10e-4,0 -0.002,-8.1e-4 -0.003,-0.002 -0.003,-0.002 -0.007,-0.004 -0.01,-0.006 -0.003,-0.002 -0.006,-0.004 -0.009,-0.006 -0.001,0 -0.002,-0.001 -0.003,-0.001 -0.003,-0.002 -0.006,-0.003 -0.008,-0.005 -0.005,-0.15122 -0.0503,-0.30097 -0.105,-0.44776 -0.0721,-0.19597 -0.29432,-0.29063 -0.48659,-0.20891 -1.49563,0.62561 -2.73835,1.78034 -3.69637,3.0959 -0.63116,0.86706 -1.83063,3.78622 -2.69584,6.28794 0.52837,-2.59452 0.98095,-5.71705 0.87742,-6.78488 -0.15493,-1.62024 -0.63893,-3.24639 -1.60692,-4.54605 -0.12498,-0.1675 -0.36458,-0.19893 -0.52653,-0.0673 -0.12091,0.0995 -0.23664,0.20447 -0.31798,0.33204 -0.003,0 -0.006,0 -0.008,0 -10e-4,0 -0.003,0 -0.004,0 -0.004,-8.1e-4 -0.008,-8.1e-4 -0.0115,-8.1e-4 -0.003,0 -0.007,0 -0.0104,8.1e-4 -0.001,0 -0.003,0 -0.004,0 -0.003,0 -0.006,0 -0.008,0 -0.0817,-0.12757 -0.19708,-0.23258 -0.31909,-0.33204 -0.16195,-0.13163 -0.40045,-0.1002 -0.52542,0.0673 -0.9691,1.29966 -1.452,2.92581 -1.60803,4.54605 -0.0843,0.87963 0.20706,3.1521 0.60749,5.37651 -0.72322,-2.14121 -1.5655,-4.2717 -2.0643,-5.00159 -0.91808,-1.34329 -2.12679,-2.53388 -3.60283,-3.20386 -0.19005,-0.0861 -0.41448,0.002 -0.49287,0.19485 -0.0588,0.14495 -0.10907,0.29247 -0.11758,0.44481 -0.004,0.001 -0.006,0.002 -0.009,0.004 -0.001,0 -0.002,10e-4 -0.003,10e-4 -0.004,0.002 -0.008,0.004 -0.0107,0.005 -0.003,0.002 -0.006,0.004 -0.009,0.006 -0.001,10e-4 -0.002,0.002 -0.003,0.002 -0.002,0.002 -0.005,0.004 -0.007,0.006 -0.13348,-0.074 -0.28508,-0.10981 -0.43926,-0.13828 -0.20559,-0.037 -0.3997,0.10574 -0.4278,0.31317 -0.22074,1.60545 0.14087,3.26266 0.78756,4.75644 0.42484,0.98354 2.32165,3.4908 4.03396,5.50519 -1.963,-1.7711 -4.41258,-3.74075 -5.3828,-4.19517 -1.47381,-0.68995 -3.11994,-1.10185 -4.73204,-0.9277 -0.207054,0.0218 -0.355692,0.21224 -0.325373,0.41856 0.02366,0.15418 0.05583,0.30763 0.124603,0.44296 -0.0019,0.003 -0.0037,0.005 -0.0056,0.007 0,0 -0.0011,0.002 -0.0011,0.002 -0.0029,0.004 -0.0048,0.006 -0.0066,0.009 -0.0022,0.003 -0.0041,0.007 -0.0048,0.0104 -0.0011,0.001 -0.0019,0.002 -0.0019,0.003 -0.0011,0.003 -0.0029,0.005 -0.0041,0.007 -0.152339,0.005 -0.300974,0.0514 -0.448505,0.10538 -0.194858,0.0728 -0.289514,0.29432 -0.209275,0.48622 0.625606,1.49563 1.78071,2.73946 3.09627,3.69748 0.86817,0.63116 3.78622,1.83063 6.28794,2.69473 -2.59341,-0.528 -5.71631,-0.97946 -6.78488,-0.87741 -1.6195,0.15529 -3.246763,0.63892 -4.546421,1.60803 -0.166396,0.12497 -0.197821,0.36383 -0.06693,0.52541 0.09909,0.12239 0.204474,0.23664 0.333147,0.31799 -0.0011,0.004 -0.0011,0.007 -0.0011,0.01 0,10e-4 0,0.002 0,0.003 0,0.005 -0.0011,0.009 -0.0011,0.0111 0,0.004 0.0011,0.008 0.0011,0.0115 0,0.001 0,0.003 0,0.003 0,0.004 0,0.007 0.0011,0.009 -0.128604,0.0823 -0.233984,0.19657 -0.333078,0.31895 -0.13089,0.16158 -0.09946,0.40118 0.06693,0.52615 1.299658,0.96837 2.926922,1.45201 4.546422,1.6073 0.87926,0.0843 3.1521,-0.20743 5.3765,-0.60786 -2.14121,0.72322 -4.27169,1.56588 -5.00158,2.06467 -1.3433,0.91808 -2.533884,2.12679 -3.204234,3.60356 -0.08616,0.18932 0.0019,0.41338 0.195226,0.49214 0.145676,0.0588 0.293204,0.1087 0.444804,0.11832 0.0011,0.003 0.0027,0.006 0.0037,0.008 0,0 0.0011,0.002 0.0011,0.003 0.0019,0.004 0.0037,0.006 0.0056,0.009 0.0011,0.003 0.0029,0.007 0.0056,0.01 0,8e-4 0.0011,0.003 0.0019,0.003 0.0011,0.003 0.0029,0.006 0.0048,0.008 -0.07396,0.13348 -0.109821,0.28471 -0.137176,0.43927 -0.03698,0.20521 0.106119,0.39932 0.312431,0.42779 1.606189,0.22148 3.263769,-0.14124 4.757189,-0.78682 0.98279,-0.42595 3.49004,-2.32165 5.50518,-4.03395 -1.77184,1.96225 -3.74148,4.41257 -4.1959,5.38279 -0.68996,1.47382 -1.10075,3.11994 -0.92771,4.73167 0.0218,0.20743 0.21187,0.35607 0.41856,0.32501 0.15492,-0.0233 0.30763,-0.0551 0.44296,-0.12424 0.003,0.002 0.004,0.003 0.007,0.005 0,8e-4 0.002,0.002 0.003,0.002 0.003,0.002 0.007,0.004 0.009,0.006 0.003,0.002 0.006,0.003 0.01,0.005 10e-4,2.7e-4 0.002,0.001 0.003,0.002 0.003,0.001 0.006,0.003 0.009,0.004 0.004,0.15197 0.0499,0.30098 0.1039,0.44814 0.0728,0.1956 0.29432,0.29025 0.4877,0.20964 1.49452,-0.62635 2.73835,-1.78033 3.69599,-3.0959 0.63154,-0.86779 1.831,-3.78622 2.69584,-6.28904 -0.528,2.59452 -0.98057,5.71741 -0.87815,6.78599 0.15603,1.61949 0.63893,3.24601 1.60803,4.54568 0.12498,0.16713 0.36347,0.19855 0.52541,0.0669 0.12203,-0.0987 0.23738,-0.20373 0.3191,-0.3324 0.003,2.7e-4 0.006,2.7e-4 0.008,8e-4 0.001,0 0.003,0 0.004,0 0.004,2.7e-4 0.007,2.7e-4 0.0104,2.7e-4 0.004,0 0.008,0 0.0115,-2.7e-4 0.001,0 0.003,0 0.004,0 0.003,-2.6e-4 0.006,-2.6e-4 0.008,-8e-4 0.0814,0.12867 0.19707,0.23368 0.31799,0.3324 0.16194,0.13163 0.40154,0.10021 0.52652,-0.0669 0.96799,-1.29967 1.45199,-2.92619 1.60692,-4.54568 0.0843,-0.88037 -0.20706,-3.15285 -0.60639,-5.37651 0.72212,2.1401 1.5644,4.27207 2.0632,5.00084 0.91845,1.34367 2.12716,2.53426 3.60357,3.20461 0.19041,0.0861 0.41485,-0.002 0.49213,-0.19523 0.0599,-0.14531 0.10907,-0.29284 0.11832,-0.44481 0.003,-10e-4 0.006,-0.003 0.008,-0.004 0.001,-2.7e-4 0.002,-0.001 0.003,-0.002 0.004,-0.002 0.007,-0.003 0.01,-0.005 0.004,-0.002 0.007,-0.004 0.0104,-0.006 0,-2.7e-4 0.002,-0.001 0.002,-0.002 0.003,-0.002 0.006,-0.003 0.008,-0.005 0.13237,0.0732 0.28397,0.10981 0.43815,0.13754 0.20558,0.037 0.40044,-0.10611 0.4289,-0.3128 0.22075,-1.60582 -0.14198,-3.2634 -0.78756,-4.75681 -0.42483,-0.98353 -2.32201,-3.49116 -4.03432,-5.50518 1.96336,1.77109 4.41294,3.74148 5.38316,4.19516 1.47382,0.68995 3.11994,1.10185 4.73204,0.92844 0.20706,-0.0226 0.3557,-0.21187 0.32464,-0.41819 -0.0229,-0.15529 -0.0551,-0.30763 -0.12423,-0.44332 0.002,-0.003 0.003,-0.006 0.005,-0.007 0.001,-0.001 0.002,-0.002 0.002,-0.003 0.003,-0.004 0.005,-0.007 0.007,-0.009 10e-4,-0.003 0.003,-0.007 0.005,-0.01 0.001,-8.1e-4 0.001,-0.003 0.002,-0.004 0.001,-0.002 0.003,-0.005 0.004,-0.008 0.15233,-0.004 0.30097,-0.0499 0.44777,-0.10501 0.19596,-0.0728 0.29062,-0.29432 0.21001,-0.48659 -0.62636,-1.49526 -1.78034,-2.73835 -3.0959,-3.696 -0.86817,-0.63227 -3.78622,-1.83062 -6.28905,-2.69583 2.59452,0.528 5.71705,0.97946 6.78599,0.87741 1.6195,-0.1553 3.24565,-0.63893 4.54531,-1.6073 0.1675,-0.12497 0.19856,-0.36457 0.0673,-0.52615 -0.0987,-0.12239 -0.20373,-0.23664 -0.33241,-0.31835"
           id="path53" /><path
           style="fill:#ffcc00;fill-opacity:1;fill-rule:nonzero;stroke:none;stroke-width:0.109576"
           d="m 118.40999,184.58378 c 0,2.21462 -1.79474,4.00849 -4.00935,4.00849 -2.21334,0 -4.00807,-1.79387 -4.00807,-4.00849 0,-2.21335 1.79473,-4.00808 4.00807,-4.00808 2.21461,0 4.00935,1.79473 4.00935,4.00808"
           id="path54" /></g></g></g></svg>
